<svg width="47" height="47" viewBox="0 0 47 47" fill="none" xmlns="http://www.w3.org/2000/svg">
<g clip-path="url(#clip0_23_91)">
<rect width="47" height="47" rx="23.5" fill="#464646"/>
<path fill-rule="evenodd" clip-rule="evenodd" d="M22.1154 16.2404C22.4827 15.8732 22.9807 15.667 23.5 15.667C24.0193 15.667 24.5173 15.8732 24.8845 16.2404L35.9628 27.3187C36.3195 27.688 36.5169 28.1827 36.5125 28.6962C36.508 29.2096 36.3021 29.7008 35.939 30.0639C35.5759 30.427 35.0847 30.6329 34.5712 30.6374C34.0578 30.6419 33.5631 30.4445 33.1937 30.0877L23.5 20.394L13.8062 30.0877C13.4369 30.4445 12.9422 30.6419 12.4287 30.6374C11.9153 30.6329 11.4241 30.427 11.061 30.0639C10.6979 29.7008 10.492 29.2096 10.4875 28.6962C10.483 28.1827 10.6804 27.688 11.0372 27.3187L22.1154 16.2404Z" fill="white"/>
</g>
<defs>
<clipPath id="clip0_23_91">
<rect width="47" height="47" rx="23.5" fill="white"/>
</clipPath>
</defs>
</svg>
