<svg width="25" height="25" viewBox="0 0 25 25" fill="none" xmlns="http://www.w3.org/2000/svg">
<path d="M12.5002 2.19375H12.5C9.76661 2.19375 7.14518 3.27958 5.21238 5.21238C3.27958 7.14518 2.19375 9.76661 2.19375 12.5C2.19375 15.2334 3.27958 17.8548 5.21238 19.7876C7.14518 21.7204 9.76661 22.8062 12.5 22.8062C14.6271 22.8062 16.8627 22.1663 18.4844 21.0888L18.4844 21.0888C18.5863 21.0211 18.6738 20.934 18.742 20.8324C18.8102 20.7309 18.8578 20.6169 18.8819 20.4969C18.9061 20.377 18.9064 20.2535 18.8828 20.1335C18.8593 20.0134 18.8123 19.8992 18.7446 19.7973C18.6768 19.6955 18.5897 19.6079 18.4882 19.5397C18.3866 19.4715 18.2726 19.424 18.1527 19.3998C18.0328 19.3756 17.9093 19.3753 17.7892 19.3989C17.6692 19.4225 17.555 19.4695 17.4531 19.5372L17.453 19.5373C16.1553 20.4018 14.2524 20.9438 12.5 20.9438C10.83 20.9438 9.19747 20.4485 7.8089 19.5207C6.42034 18.5929 5.33808 17.2742 4.69899 15.7313C4.0599 14.1884 3.89269 12.4906 4.21849 10.8527C4.5443 9.21478 5.34849 7.71025 6.52937 6.52937C7.71025 5.34849 9.21478 4.5443 10.8527 4.21849C12.4906 3.89269 14.1884 4.0599 15.7313 4.69899C17.2742 5.33808 18.5929 6.42034 19.5207 7.8089C20.4485 9.19747 20.9438 10.83 20.9438 12.5C20.9438 13.7747 20.681 14.5155 20.3353 14.9359C19.9943 15.3506 19.5542 15.475 19.1406 15.475C18.727 15.475 18.287 15.3506 17.9459 14.9359C17.6003 14.5155 17.3375 13.7747 17.3375 12.5V8.59375C17.3375 8.34677 17.2394 8.1099 17.0647 7.93526C16.8901 7.76061 16.6532 7.6625 16.4062 7.6625C16.1593 7.6625 15.9224 7.76061 15.7478 7.93526C15.5731 8.1099 15.475 8.34677 15.475 8.59375V8.68859C14.7984 8.1597 13.9914 7.81919 13.1363 7.70497C12.1731 7.57632 11.1935 7.74074 10.325 8.1768C9.45662 8.61287 8.73966 9.30037 8.26757 10.1497C7.79547 10.9991 7.59013 11.971 7.67828 12.9387C7.76643 13.9065 8.144 14.8252 8.76179 15.5753C9.37958 16.3254 10.209 16.8721 11.1419 17.144C12.0748 17.416 13.068 17.4007 13.9921 17.1002C14.8434 16.8233 15.5997 16.3161 16.1782 15.637C16.8023 16.731 17.822 17.3375 19.1406 17.3375C20.2858 17.3375 21.2102 16.8793 21.8439 16.0346C22.4735 15.1952 22.8062 13.9877 22.8062 12.5V12.4998C22.8034 9.76738 21.7166 7.14766 19.7845 5.21552C17.8523 3.28338 15.2326 2.19664 12.5002 2.19375ZM12.5 15.475C11.9116 15.475 11.3364 15.3005 10.8472 14.9736C10.3579 14.6467 9.97663 14.1821 9.75146 13.6385C9.52629 13.0949 9.46737 12.4967 9.58216 11.9196C9.69695 11.3425 9.9803 10.8124 10.3964 10.3964C10.8124 9.9803 11.3425 9.69695 11.9196 9.58216C12.4967 9.46737 13.0949 9.52629 13.6385 9.75146C14.1821 9.97663 14.6467 10.3579 14.9736 10.8472C15.3005 11.3364 15.475 11.9116 15.475 12.5C15.475 13.289 15.1616 14.0457 14.6036 14.6036C14.0457 15.1616 13.289 15.475 12.5 15.475Z" fill="#424874" stroke="#424874" stroke-width="0.3"/>
</svg>
