<svg width="62" height="62" viewBox="0 0 62 62" fill="none" xmlns="http://www.w3.org/2000/svg">
<g clip-path="url(#clip0_347_478)">
<path fill-rule="evenodd" clip-rule="evenodd" d="M7.94639 14.5106C8.14206 14.0386 8.47328 13.6353 8.89815 13.3516C9.32303 13.0679 9.82249 12.9165 10.3334 12.9167H36.1667C38.5415 12.9167 40.8929 13.3844 43.0869 14.2932C45.2809 15.2019 47.2744 16.5339 48.9536 18.2131C50.6328 19.8923 51.9648 21.8858 52.8736 24.0798C53.7823 26.2738 54.2501 28.6253 54.2501 31C54.2501 33.3747 53.7823 35.7262 52.8736 37.9202C51.9648 40.1142 50.6328 42.1076 48.9536 43.7868C47.2744 45.466 45.2809 46.798 43.0869 47.7068C40.8929 48.6156 38.5415 49.0833 36.1667 49.0833H12.9167C12.2316 49.0833 11.5745 48.8112 11.09 48.3267C10.6056 47.8422 10.3334 47.1851 10.3334 46.5C10.3334 45.8148 10.6056 45.1578 11.09 44.6733C11.5745 44.1888 12.2316 43.9167 12.9167 43.9167H36.1667C39.5924 43.9167 42.8778 42.5558 45.3002 40.1335C47.7225 37.7111 49.0834 34.4257 49.0834 31C49.0834 27.5743 47.7225 24.2889 45.3002 21.8665C42.8778 19.4442 39.5924 18.0833 36.1667 18.0833H16.5696L21.2015 22.7152C21.672 23.2025 21.9324 23.855 21.9265 24.5324C21.9207 25.2097 21.649 25.8576 21.17 26.3366C20.691 26.8156 20.0431 27.0873 19.3658 27.0931C18.6884 27.099 18.0359 26.8386 17.5486 26.3681L8.50697 17.3264C8.14548 16.9651 7.89926 16.5048 7.79948 16.0035C7.69969 15.5023 7.75082 14.9827 7.94639 14.5106Z" fill="#545454"/>
</g>
<defs>
<clipPath id="clip0_347_478">
<rect width="62" height="62" fill="white"/>
</clipPath>
</defs>
</svg>
