<svg width="32" height="26" viewBox="0 0 32 26" fill="none" xmlns="http://www.w3.org/2000/svg">
<path fill-rule="evenodd" clip-rule="evenodd" d="M0.382959 1.82975C0.515511 1.51005 0.739882 1.23683 1.0277 1.04464C1.31552 0.852448 1.65387 0.749913 1.99996 0.75H19.5C21.1087 0.75 22.7016 1.06686 24.1878 1.68248C25.6741 2.2981 27.0245 3.20042 28.162 4.33794C29.2995 5.47546 30.2019 6.82589 30.8175 8.31213C31.4331 9.79837 31.75 11.3913 31.75 13C31.75 14.6087 31.4331 16.2016 30.8175 17.6879C30.2019 19.1741 29.2995 20.5245 28.162 21.6621C27.0245 22.7996 25.6741 23.7019 24.1878 24.3175C22.7016 24.9331 21.1087 25.25 19.5 25.25H3.74996C3.28583 25.25 2.84071 25.0656 2.51252 24.7374C2.18433 24.4093 1.99996 23.9641 1.99996 23.5C1.99996 23.0359 2.18433 22.5908 2.51252 22.2626C2.84071 21.9344 3.28583 21.75 3.74996 21.75H19.5C21.8206 21.75 24.0462 20.8281 25.6871 19.1872C27.3281 17.5462 28.25 15.3206 28.25 13C28.25 10.6794 27.3281 8.45376 25.6871 6.81282C24.0462 5.17187 21.8206 4.25 19.5 4.25H6.22446L9.36221 7.38775C9.68099 7.7178 9.85738 8.15986 9.85339 8.6187C9.8494 9.07755 9.66536 9.51647 9.34089 9.84093C9.01643 10.1654 8.57751 10.3494 8.11866 10.3534C7.65982 10.3574 7.21776 10.181 6.88771 9.86225L0.762709 3.73725C0.517826 3.49252 0.351036 3.18066 0.283438 2.84111C0.215841 2.50157 0.250475 2.14961 0.382959 1.82975Z" fill="#D6D6D6"/>
</svg>
