<svg width="19" height="18" viewBox="0 0 19 18" fill="none" xmlns="http://www.w3.org/2000/svg">
<path d="M2 18C1.45 18 0.979002 17.804 0.587002 17.412C0.195002 17.02 -0.000664969 16.5493 1.69779e-06 16V2C1.69779e-06 1.45 0.196002 0.979002 0.588002 0.587002C0.980002 0.195002 1.45067 -0.000664969 2 1.69779e-06H16C16.1333 1.69779e-06 16.2583 0.0126685 16.375 0.0380018C16.4917 0.0633351 16.6083 0.100668 16.725 0.150002L14.875 2H2V16H16V9.35L18 7.35V16C18 16.55 17.804 17.021 17.412 17.413C17.02 17.805 16.5493 18.0007 16 18H2ZM8.525 11.2L17.025 2.7C17.2083 2.51667 17.4333 2.425 17.7 2.425C17.9667 2.425 18.2 2.51667 18.4 2.7C18.6 2.88333 18.7 3.11667 18.7 3.4C18.7 3.68334 18.6 3.925 18.4 4.125L9.225 13.3C9.025 13.5 8.79167 13.6 8.525 13.6C8.25834 13.6 8.025 13.5 7.825 13.3L3.575 9.05C3.39167 8.86667 3.3 8.63334 3.3 8.35C3.3 8.06667 3.39167 7.83333 3.575 7.65C3.75833 7.46667 3.99167 7.375 4.275 7.375C4.55834 7.375 4.79167 7.46667 4.975 7.65L8.525 11.2Z" fill="white"/>
</svg>
