<svg width="24" height="24" viewBox="0 0 24 24" fill="none" xmlns="http://www.w3.org/2000/svg">
<g clip-path="url(#clip0_700_492)">
<path fill-rule="evenodd" clip-rule="evenodd" d="M12.554 15.5291C12.3665 15.7166 12.1122 15.8219 11.847 15.8219C11.5819 15.8219 11.3276 15.7166 11.14 15.5291L5.48302 9.87212C5.38751 9.77987 5.31133 9.66953 5.25892 9.54752C5.20651 9.42552 5.17893 9.2943 5.17777 9.16152C5.17662 9.02874 5.20192 8.89706 5.2522 8.77417C5.30248 8.65127 5.37674 8.53962 5.47063 8.44573C5.56452 8.35183 5.67617 8.27758 5.79907 8.2273C5.92196 8.17702 6.05364 8.15172 6.18642 8.15287C6.3192 8.15402 6.45042 8.18161 6.57243 8.23402C6.69443 8.28643 6.80478 8.36261 6.89702 8.45812L11.847 13.4081L16.797 8.45812C16.9856 8.27596 17.2382 8.17517 17.5004 8.17745C17.7626 8.17972 18.0134 8.28489 18.1988 8.4703C18.3842 8.65571 18.4894 8.90652 18.4917 9.16872C18.494 9.43092 18.3932 9.68352 18.211 9.87212L12.554 15.5291Z" fill="#B4B4B4"/>
</g>
<defs>
<clipPath id="clip0_700_492">
<rect width="24" height="24" fill="white" transform="translate(24) rotate(90)"/>
</clipPath>
</defs>
</svg>
