<svg width="6" height="9" viewBox="0 0 6 9" fill="none" xmlns="http://www.w3.org/2000/svg">
<path fill-rule="evenodd" clip-rule="evenodd" d="M0.900785 4.89658C0.789671 4.78134 0.72725 4.62506 0.72725 4.46211C0.72725 4.29916 0.789671 4.14288 0.900785 4.02764L4.25368 0.551255C4.30836 0.492562 4.37376 0.445746 4.44607 0.413539C4.51838 0.381332 4.59616 0.36438 4.67486 0.363671C4.75355 0.362962 4.8316 0.37851 4.90444 0.409409C4.97728 0.440308 5.04346 0.485939 5.09911 0.543639C5.15476 0.601338 5.19877 0.669951 5.22857 0.745474C5.25837 0.820997 5.27337 0.901918 5.27268 0.983515C5.272 1.06511 5.25565 1.14575 5.22459 1.22072C5.19352 1.2957 5.14837 1.36351 5.09176 1.4202L2.1579 4.46211L5.09176 7.50402C5.19973 7.61992 5.25947 7.77515 5.25812 7.93628C5.25677 8.0974 5.19443 8.25154 5.08454 8.36547C4.97465 8.47941 4.82599 8.54404 4.67059 8.54544C4.51519 8.54684 4.36547 8.4849 4.25368 8.37296L0.900785 4.89658Z" fill="#646464"/>
</svg>
