<svg width="30" height="30" viewBox="0 0 30 30" fill="none" xmlns="http://www.w3.org/2000/svg">
<path d="M11.7 26C11.4083 26 11.1285 25.8841 10.9222 25.6778C10.7159 25.4715 10.6 25.1917 10.6 24.9V21.6H6.2C5.61652 21.6 5.05694 21.3682 4.64437 20.9556C4.23178 20.5431 4 19.9835 4 19.4V6.2C4 5.61652 4.23178 5.05694 4.64437 4.64437C5.05694 4.23178 5.61652 4 6.2 4H23.8C24.3835 4 24.9431 4.23178 25.3556 4.64437C25.7682 5.05694 26 5.61652 26 6.2V19.4C26 19.9835 25.7682 20.5431 25.3556 20.9556C24.9431 21.3682 24.3835 21.6 23.8 21.6H17.09L13.02 25.681C12.8 25.89 12.525 26 12.25 26H11.7Z" fill="#5C64A2"/>
</svg>
