<svg width="28" height="28" viewBox="0 0 28 28" fill="none" xmlns="http://www.w3.org/2000/svg">
<g clip-path="url(#clip0_128_1328)">
<path d="M24.9258 4.82456H21.9083V7.08772C21.9083 7.30567 21.8654 7.52148 21.782 7.72284C21.6986 7.9242 21.5763 8.10716 21.4222 8.26127C21.2681 8.41538 21.0851 8.53763 20.8838 8.62103C20.6824 8.70444 20.4666 8.74737 20.2486 8.74737C20.0307 8.74737 19.8149 8.70444 19.6135 8.62103C19.4122 8.53763 19.2292 8.41538 19.0751 8.26127C18.921 8.10716 18.7987 7.9242 18.7153 7.72284C18.6319 7.52148 18.589 7.30567 18.589 7.08772V4.82456H9.8004V7.08772C9.8004 7.52789 9.62554 7.95002 9.3143 8.26127C9.00305 8.57251 8.58092 8.74737 8.14075 8.74737C7.70058 8.74737 7.27845 8.57251 6.9672 8.26127C6.65596 7.95002 6.4811 7.52789 6.4811 7.08772V4.82456H3.46356C3.28403 4.82252 3.10592 4.8565 2.93975 4.92449C2.77359 4.99248 2.62274 5.0931 2.49614 5.22041C2.36954 5.34771 2.26976 5.49911 2.20269 5.66565C2.13562 5.83219 2.10263 6.01049 2.10566 6.19V23.0732C2.10267 23.2495 2.13444 23.4247 2.19917 23.5888C2.26389 23.7528 2.36031 23.9026 2.4829 24.0293C2.6055 24.1561 2.75187 24.2576 2.91366 24.3278C3.07545 24.398 3.24949 24.4356 3.42584 24.4386H24.9258C25.1022 24.4356 25.2762 24.398 25.438 24.3278C25.5998 24.2576 25.7462 24.1561 25.8688 24.0293C25.9914 23.9026 26.0878 23.7528 26.1525 23.5888C26.2172 23.4247 26.249 23.2495 26.246 23.0732V6.19C26.249 6.01365 26.2172 5.83844 26.1525 5.67438C26.0878 5.51031 25.9914 5.36061 25.8688 5.23381C25.7462 5.10701 25.5998 5.00561 25.438 4.93539C25.2762 4.86517 25.1022 4.82751 24.9258 4.82456ZM8.14075 19.9123H6.63198V18.4035H8.14075V19.9123ZM8.14075 16.1404H6.63198V14.6316H8.14075V16.1404ZM8.14075 12.3684H6.63198V10.8596H8.14075V12.3684ZM12.6671 19.9123H11.1583V18.4035H12.6671V19.9123ZM12.6671 16.1404H11.1583V14.6316H12.6671V16.1404ZM12.6671 12.3684H11.1583V10.8596H12.6671V12.3684ZM17.1934 19.9123H15.6846V18.4035H17.1934V19.9123ZM17.1934 16.1404H15.6846V14.6316H17.1934V16.1404ZM17.1934 12.3684H15.6846V10.8596H17.1934V12.3684ZM21.7197 19.9123H20.2109V18.4035H21.7197V19.9123ZM21.7197 16.1404H20.2109V14.6316H21.7197V16.1404ZM21.7197 12.3684H20.2109V10.8596H21.7197V12.3684Z" fill="#858585"/>
<path d="M8.14062 7.8421C8.34069 7.8421 8.53257 7.76262 8.67405 7.62115C8.81552 7.47967 8.895 7.28779 8.895 7.08772V2.5614C8.895 2.36132 8.81552 2.16944 8.67405 2.02797C8.53257 1.88649 8.34069 1.80701 8.14062 1.80701C7.94054 1.80701 7.74866 1.88649 7.60719 2.02797C7.46571 2.16944 7.38623 2.36132 7.38623 2.5614V7.08772C7.38623 7.28779 7.46571 7.47967 7.60719 7.62115C7.74866 7.76262 7.94054 7.8421 8.14062 7.8421Z" fill="#858585"/>
<path d="M20.2109 7.8421C20.411 7.8421 20.6029 7.76262 20.7444 7.62115C20.8858 7.47967 20.9653 7.28779 20.9653 7.08772V2.5614C20.9653 2.36132 20.8858 2.16944 20.7444 2.02797C20.6029 1.88649 20.411 1.80701 20.2109 1.80701C20.0109 1.80701 19.819 1.88649 19.6775 2.02797C19.536 2.16944 19.4565 2.36132 19.4565 2.5614V7.08772C19.4565 7.28779 19.536 7.47967 19.6775 7.62115C19.819 7.76262 20.0109 7.8421 20.2109 7.8421Z" fill="#858585"/>
</g>
<defs>
<clipPath id="clip0_128_1328">
<rect width="27.1579" height="27.1579" fill="white" transform="translate(0.59668 0.298244)"/>
</clipPath>
</defs>
</svg>
