<svg width="24" height="24" viewBox="0 0 24 24" fill="none" xmlns="http://www.w3.org/2000/svg">
<path d="M11.9999 2.3999C14.546 2.3999 16.9878 3.41133 18.7881 5.21168C20.5885 7.01203 21.5999 9.45382 21.5999 11.9999C21.5999 14.546 20.5885 16.9878 18.7881 18.7881C16.9878 20.5885 14.546 21.5999 11.9999 21.5999C9.45382 21.5999 7.01203 20.5885 5.21168 18.7881C3.41133 16.9878 2.3999 14.546 2.3999 11.9999C2.3999 9.45382 3.41133 7.01203 5.21168 5.21168C7.01203 3.41133 9.45382 2.3999 11.9999 2.3999ZM8.5859 14.9123C8.53035 14.8564 8.46433 14.8119 8.3916 14.7815C8.31887 14.7511 8.24086 14.7352 8.16202 14.735C8.08319 14.7347 8.00507 14.7499 7.93212 14.7799C7.85918 14.8098 7.79285 14.8538 7.7369 14.9093C7.68096 14.9649 7.63651 15.0309 7.60608 15.1036C7.57565 15.1763 7.55985 15.2543 7.55957 15.3332C7.55929 15.412 7.57454 15.4901 7.60445 15.5631C7.63437 15.636 7.67835 15.7024 7.7339 15.7583C8.82146 16.8527 10.2881 17.4872 11.8304 17.5306C13.3727 17.5739 14.8726 17.0227 16.0199 15.9911L16.2659 15.7583L16.3343 15.6743C16.4136 15.5585 16.4498 15.4186 16.4366 15.2788C16.4234 15.1391 16.3616 15.0084 16.262 14.9095C16.1624 14.8106 16.0313 14.7498 15.8914 14.7376C15.7516 14.7254 15.6119 14.7626 15.4967 14.8427L15.4139 14.9123L15.2003 15.1163C14.2808 15.9345 13.0827 16.3693 11.8525 16.3313C10.6222 16.2934 9.45328 15.7856 8.5859 14.9123ZM14.9999 8.9999C14.6816 8.9999 14.3764 9.12633 14.1514 9.35137C13.9263 9.57642 13.7999 9.88164 13.7999 10.1999C13.7999 10.5182 13.9263 10.8234 14.1514 11.0484C14.3764 11.2735 14.6816 11.3999 14.9999 11.3999C15.3182 11.3999 15.6234 11.2735 15.8484 11.0484C16.0735 10.8234 16.1999 10.5182 16.1999 10.1999C16.1999 9.88164 16.0735 9.57642 15.8484 9.35137C15.6234 9.12633 15.3182 8.9999 14.9999 8.9999ZM8.9999 8.9999C8.68164 8.9999 8.37642 9.12633 8.15137 9.35137C7.92633 9.57642 7.7999 9.88164 7.7999 10.1999C7.7999 10.5182 7.92633 10.8234 8.15137 11.0484C8.37642 11.2735 8.68164 11.3999 8.9999 11.3999C9.31816 11.3999 9.62339 11.2735 9.84843 11.0484C10.0735 10.8234 10.1999 10.5182 10.1999 10.1999C10.1999 9.88164 10.0735 9.57642 9.84843 9.35137C9.62339 9.12633 9.31816 8.9999 8.9999 8.9999Z" fill="#545454"/>
</svg>
