<svg width="45" height="45" viewBox="0 0 45 45" fill="none" xmlns="http://www.w3.org/2000/svg">
<circle cx="22.5" cy="22.5" r="22.5" fill="black" fill-opacity="0.38"/>
<path d="M12.1154 12.1147H19.0385V14.4224H16.11L21.6981 20.0105L20.0654 21.6421L14.4231 15.9997V19.0378H12.1154V12.1147ZM12.1154 32.884H19.0385V30.5763H16.0108L21.6981 24.8901L20.0654 23.2586L14.4231 28.9009V25.9609H12.1154V32.884ZM25.9615 32.884H32.8846V25.9609H30.5769V28.8732L24.9612 23.2586L23.3296 24.8901L29.0158 30.5763H25.9615V32.884ZM32.8846 12.1147H25.9615V14.4224H28.9177L23.3296 20.0105L24.9612 21.6421L30.5769 16.0263V19.0378H32.8846V12.1147Z" fill="white"/>
</svg>
