<svg width="38" height="38" viewBox="0 0 38 38" fill="none" xmlns="http://www.w3.org/2000/svg">
<g clip-path="url(#clip0_327_2)">
<path d="M19 21C20.1046 21 21 20.1046 21 19C21 17.8954 20.1046 17 19 17C17.8954 17 17 17.8954 17 19C17 20.1046 17.8954 21 19 21Z" fill="white"/>
<path d="M19 0C8.52351 0 0 8.52351 0 19C0 29.4765 8.52351 38 19 38C29.4765 38 38 29.4765 38 19C38 8.52351 29.4765 0 19 0ZM23.3846 23.3846L8.76923 29.2308L14.6154 14.6154L29.2308 8.76923L23.3846 23.3846Z" fill="white"/>
</g>
<defs>
<clipPath id="clip0_327_2">
<rect width="38" height="38" fill="white"/>
</clipPath>
</defs>
</svg>
