<svg width="17" height="11" viewBox="0 0 17 11" fill="none" xmlns="http://www.w3.org/2000/svg">
<path d="M7.03276 4.03275C7.4219 3.64362 7.94969 3.425 8.50001 3.425C9.05033 3.425 9.57812 3.64362 9.96726 4.03275C10.3564 4.42189 10.575 4.94968 10.575 5.5C10.575 6.05032 10.3564 6.57811 9.96726 6.96725C9.57812 7.35638 9.05033 7.575 8.50001 7.575C7.94969 7.575 7.4219 7.35638 7.03276 6.96725C6.64363 6.57811 6.42501 6.05032 6.42501 5.5C6.42501 4.94968 6.64363 4.42189 7.03276 4.03275ZM5.96032 8.03969C6.63389 8.71326 7.54744 9.09167 8.50001 9.09167C9.45258 9.09167 10.3661 8.71326 11.0397 8.03969C11.7133 7.36612 12.0917 6.45257 12.0917 5.5C12.0917 4.54743 11.7133 3.63388 11.0397 2.96031C10.3661 2.28674 9.45258 1.90833 8.50001 1.90833C7.54744 1.90833 6.63389 2.28674 5.96032 2.96031C5.28675 3.63388 4.90834 4.54743 4.90834 5.5C4.90834 6.45257 5.28675 7.36612 5.96032 8.03969ZM0.762111 5.5C1.98493 2.41848 4.98661 0.2375 8.50001 0.2375C12.0134 0.2375 15.0151 2.41848 16.2379 5.5C15.0151 8.58152 12.0134 10.7625 8.50001 10.7625C4.98661 10.7625 1.98493 8.58152 0.762111 5.5Z" fill="white" fill-opacity="0.88" stroke="black" stroke-width="0.1"/>
</svg>
