<svg width="8" height="11" viewBox="0 0 8 11" fill="none" xmlns="http://www.w3.org/2000/svg">
<path d="M0.875 0C0.974456 0 1.06984 0.0395088 1.14017 0.109835C1.21049 0.180161 1.25 0.275544 1.25 0.375V1.3L2.11 1.128C2.93538 0.962857 3.79097 1.04138 4.5725 1.354L4.6745 1.3945C5.45495 1.70678 6.31395 1.76521 7.1295 1.5615C7.21795 1.53939 7.31027 1.53773 7.39946 1.55664C7.48865 1.57555 7.57236 1.61454 7.64422 1.67065C7.71608 1.72675 7.77422 1.79849 7.81421 1.88043C7.8542 1.96236 7.87499 2.05233 7.875 2.1435V5.827C7.875 6.149 7.6555 6.43 7.343 6.508L7.236 6.5345C6.35126 6.75577 5.41929 6.69262 4.5725 6.354C3.79113 6.04145 2.93571 5.96293 2.1105 6.128L1.25 6.3V10.375C1.25 10.4745 1.21049 10.5698 1.14017 10.6402C1.06984 10.7105 0.974456 10.75 0.875 10.75C0.775544 10.75 0.680161 10.7105 0.609835 10.6402C0.539509 10.5698 0.5 10.4745 0.5 10.375V0.375C0.5 0.275544 0.539509 0.180161 0.609835 0.109835C0.680161 0.0395088 0.775544 0 0.875 0Z" fill="#CD5252"/>
</svg>
