<svg width="44" height="34" viewBox="0 0 44 34" fill="none" xmlns="http://www.w3.org/2000/svg">
<path d="M19.25 33.5C19.25 33.5 16.5 33.5 16.5 30.75C16.5 28 19.25 19.75 30.25 19.75C41.25 19.75 44 28 44 30.75C44 33.5 41.25 33.5 41.25 33.5H19.25ZM30.25 17C32.438 17 34.5365 16.1308 36.0836 14.5836C37.6308 13.0365 38.5 10.938 38.5 8.75C38.5 6.56196 37.6308 4.46354 36.0836 2.91637C34.5365 1.36919 32.438 0.5 30.25 0.5C28.062 0.5 25.9635 1.36919 24.4164 2.91637C22.8692 4.46354 22 6.56196 22 8.75C22 10.938 22.8692 13.0365 24.4164 14.5836C25.9635 16.1308 28.062 17 30.25 17ZM14.344 33.5C13.9363 32.6415 13.733 31.7002 13.75 30.75C13.75 27.0238 15.62 23.1875 19.074 20.52C17.35 19.9888 15.5539 19.729 13.75 19.75C2.75 19.75 0 28 0 30.75C0 33.5 2.75 33.5 2.75 33.5H14.344ZM12.375 17C14.1984 17 15.947 16.2757 17.2364 14.9864C18.5257 13.697 19.25 11.9484 19.25 10.125C19.25 8.30164 18.5257 6.55295 17.2364 5.26364C15.947 3.97433 14.1984 3.25 12.375 3.25C10.5516 3.25 8.80295 3.97433 7.51364 5.26364C6.22433 6.55295 5.5 8.30164 5.5 10.125C5.5 11.9484 6.22433 13.697 7.51364 14.9864C8.80295 16.2757 10.5516 17 12.375 17Z" fill="white"/>
</svg>
