<svg width="47" height="47" viewBox="0 0 47 47" fill="none" xmlns="http://www.w3.org/2000/svg">
<path d="M23.5 1.95833L5.875 9.79166V21.5417C5.875 32.4104 13.395 42.5742 23.5 45.0417C33.605 42.5742 41.125 32.4104 41.125 21.5417V9.79166L23.5 1.95833ZM23.5 9.59583C24.662 9.59583 25.7978 9.94039 26.764 10.5859C27.7301 11.2315 28.4831 12.149 28.9278 13.2226C29.3725 14.2961 29.4888 15.4773 29.2621 16.617C29.0354 17.7566 28.4759 18.8034 27.6543 19.6251C26.8326 20.4467 25.7858 21.0063 24.6462 21.2329C23.5065 21.4596 22.3253 21.3433 21.2517 20.8986C20.1782 20.454 19.2607 19.7009 18.6151 18.7348C17.9696 17.7687 17.625 16.6328 17.625 15.4708C17.625 13.9127 18.244 12.4184 19.3457 11.3166C20.4475 10.2148 21.9419 9.59583 23.5 9.59583ZM23.5 25.0667C27.4167 25.0667 35.25 27.2012 35.25 31.0983C33.9638 33.0373 32.2178 34.6279 30.1676 35.7282C28.1174 36.8284 25.8268 37.4043 23.5 37.4043C21.1732 37.4043 18.8826 36.8284 16.8324 35.7282C14.7822 34.6279 13.0362 33.0373 11.75 31.0983C11.75 27.2012 19.5833 25.0667 23.5 25.0667Z" fill="#5C64A2"/>
</svg>
