<svg width="18" height="20" viewBox="0 0 18 20" fill="none" xmlns="http://www.w3.org/2000/svg">
<path d="M15.875 7.04688H12.9531V4.8125C12.9531 3.76407 12.5366 2.75857 11.7953 2.01722C11.0539 1.27586 10.0484 0.859375 9 0.859375C7.95157 0.859375 6.94607 1.27586 6.20472 2.01722C5.46336 2.75857 5.04688 3.76407 5.04688 4.8125V7.04688H2.125C1.80591 7.04688 1.49989 7.17363 1.27426 7.39926C1.04863 7.62489 0.921875 7.93091 0.921875 8.25V17.875C0.921875 18.1941 1.04863 18.5001 1.27426 18.7257C1.49989 18.9514 1.80591 19.0781 2.125 19.0781H15.875C16.1941 19.0781 16.5001 18.9514 16.7257 18.7257C16.9514 18.5001 17.0781 18.1941 17.0781 17.875V8.25C17.0781 7.93091 16.9514 7.62489 16.7257 7.39926C16.5001 7.17363 16.1941 7.04688 15.875 7.04688ZM6.07812 4.8125C6.07812 4.03757 6.38596 3.29438 6.93392 2.74642C7.48188 2.19846 8.22507 1.89062 9 1.89062C9.77493 1.89062 10.5181 2.19846 11.0661 2.74642C11.614 3.29438 11.9219 4.03757 11.9219 4.8125V7.04688H6.07812V4.8125ZM16.0469 17.875C16.0469 17.9206 16.0288 17.9643 15.9965 17.9965C15.9643 18.0288 15.9206 18.0469 15.875 18.0469H2.125C2.07942 18.0469 2.0357 18.0288 2.00347 17.9965C1.97123 17.9643 1.95312 17.9206 1.95312 17.875V8.25C1.95312 8.20442 1.97123 8.1607 2.00347 8.12847C2.0357 8.09623 2.07942 8.07812 2.125 8.07812H15.875C15.9206 8.07812 15.9643 8.09623 15.9965 8.12847C16.0288 8.1607 16.0469 8.20442 16.0469 8.25V17.875ZM9.85938 13.0625C9.85938 13.2325 9.80897 13.3986 9.71454 13.5399C9.62012 13.6813 9.4859 13.7914 9.32887 13.8565C9.17184 13.9215 8.99905 13.9385 8.83234 13.9054C8.66564 13.8722 8.51252 13.7904 8.39233 13.6702C8.27214 13.55 8.1903 13.3969 8.15714 13.2302C8.12398 13.0635 8.141 12.8907 8.20604 12.7336C8.27109 12.5766 8.38123 12.4424 8.52256 12.348C8.66388 12.2535 8.83003 12.2031 9 12.2031C9.22792 12.2031 9.44651 12.2937 9.60767 12.4548C9.76884 12.616 9.85938 12.8346 9.85938 13.0625Z" fill="#505050"/>
</svg>
