<svg width="30" height="30" viewBox="0 0 30 30" fill="none" xmlns="http://www.w3.org/2000/svg">
<path d="M25.3375 20.3312L26.2188 15.2312C26.2705 14.9323 26.2563 14.6257 26.1771 14.3329C26.0979 14.04 25.9558 13.768 25.7605 13.5358C25.5653 13.3037 25.3216 13.117 25.0467 12.9888C24.7717 12.8606 24.4721 12.794 24.1688 12.7937H17.6925C17.5414 12.7938 17.392 12.7609 17.2549 12.6974C17.1177 12.6339 16.996 12.5413 16.8983 12.4261C16.8005 12.3108 16.729 12.1757 16.6887 12.03C16.6484 11.8843 16.6403 11.7316 16.665 11.5825L17.4938 6.52625C17.6282 5.70529 17.5899 4.8653 17.3813 4.05999C17.292 3.72725 17.12 3.42247 16.8814 3.17399C16.6427 2.92551 16.3451 2.74139 16.0163 2.63875L15.835 2.57999C15.4252 2.44836 14.9806 2.47878 14.5925 2.66499C14.1675 2.86999 13.8575 3.24375 13.7425 3.68749L13.1475 5.97999C12.9581 6.70953 12.6828 7.41403 12.3275 8.07874C11.8088 9.04999 11.0063 9.82874 10.1713 10.5475L8.37251 12.0975C8.12297 12.3131 7.92807 12.5848 7.80379 12.8903C7.67951 13.1958 7.62938 13.5264 7.65751 13.855L8.67251 25.5962C8.71724 26.1155 8.95506 26.5991 9.339 26.9516C9.72293 27.304 10.2251 27.4997 10.7463 27.5H16.5563C20.9088 27.5 24.6225 24.4675 25.3375 20.3312Z" fill="#FF3030"/>
<path fill-rule="evenodd" clip-rule="evenodd" d="M3.7101 11.8562C3.95167 11.8457 4.18799 11.9289 4.36967 12.0884C4.55136 12.248 4.66437 12.4716 4.6851 12.7125L5.8976 26.7575C5.91814 26.9666 5.89583 27.1778 5.83203 27.378C5.76823 27.5783 5.66428 27.7634 5.52653 27.9221C5.38878 28.0808 5.22012 28.2098 5.03085 28.3012C4.84159 28.3925 4.63569 28.4443 4.42572 28.4534C4.21576 28.4625 4.00615 28.4287 3.80969 28.3541C3.61323 28.2795 3.43404 28.1656 3.28307 28.0194C3.1321 27.8732 3.01252 27.6977 2.93163 27.5038C2.85074 27.3098 2.81024 27.1014 2.8126 26.8912V12.7925C2.8127 12.5508 2.90611 12.3186 3.07333 12.1441C3.24055 11.9697 3.46867 11.8666 3.7101 11.8562Z" fill="#FF3030"/>
</svg>
