<svg width="22" height="22" viewBox="0 0 22 22" fill="none" xmlns="http://www.w3.org/2000/svg">
<path d="M4.9501 11C4.9501 10.8541 4.89215 10.7142 4.78901 10.6111C4.68586 10.508 4.54597 10.45 4.4001 10.45C4.25423 10.45 4.11433 10.508 4.01119 10.6111C3.90804 10.7142 3.8501 10.8541 3.8501 11C3.84989 12.5095 4.41397 13.9646 5.43159 15.0795C6.44921 16.1944 7.84686 16.8886 9.3501 17.0258V19.25C9.3501 19.3959 9.40804 19.5358 9.51119 19.6389C9.61433 19.7421 9.75423 19.8 9.9001 19.8C10.046 19.8 10.1859 19.7421 10.289 19.6389C10.3922 19.5358 10.4501 19.3959 10.4501 19.25V18.4734C10.0866 17.6819 9.89897 16.821 9.9001 15.95C8.58728 15.95 7.32822 15.4285 6.39992 14.5002C5.47161 13.5719 4.9501 12.3128 4.9501 11ZM13.2001 5.50001V10.56C12.4601 10.9386 11.8058 11.4653 11.2779 12.1074C10.7499 12.7494 10.3596 13.4931 10.1311 14.2923C9.67935 14.324 9.22592 14.2624 8.79901 14.1113C8.37211 13.9602 7.98087 13.7228 7.64965 13.414C7.31844 13.1052 7.05433 12.7315 6.87376 12.3162C6.6932 11.9009 6.60004 11.4529 6.6001 11V5.50001C6.6001 4.6248 6.94778 3.78543 7.56665 3.16656C8.18552 2.54769 9.02488 2.20001 9.9001 2.20001C10.7753 2.20001 11.6147 2.54769 12.2336 3.16656C12.8524 3.78543 13.2001 4.6248 13.2001 5.50001ZM20.9001 15.95C20.9001 14.6372 20.3786 13.3781 19.4503 12.4498C18.522 11.5215 17.2629 11 15.9501 11C14.6373 11 13.3782 11.5215 12.4499 12.4498C11.5216 13.3781 11.0001 14.6372 11.0001 15.95C11.0001 17.2628 11.5216 18.5219 12.4499 19.4502C13.3782 20.3785 14.6373 20.9 15.9501 20.9C17.2629 20.9 18.522 20.3785 19.4503 19.4502C20.3786 18.5219 20.9001 17.2628 20.9001 15.95ZM14.7885 13.75C14.899 13.7536 15.0058 13.7903 15.0951 13.8554C15.1843 13.9206 15.2519 14.0111 15.289 14.1152L15.9809 16.049L16.6189 14.4617C16.658 14.3648 16.7238 14.281 16.8088 14.2202C16.8938 14.1594 16.9943 14.124 17.0986 14.1182C17.203 14.1125 17.3068 14.1365 17.3979 14.1876C17.4891 14.2387 17.5638 14.3147 17.6133 14.4067L18.2436 15.5837H18.7001C18.846 15.5837 18.9859 15.6417 19.089 15.7448C19.1922 15.8479 19.2501 15.9878 19.2501 16.1337C19.2501 16.2796 19.1922 16.4195 19.089 16.5226C18.9859 16.6258 18.846 16.6837 18.7001 16.6837H17.9147C17.8151 16.6838 17.7174 16.6568 17.632 16.6056C17.5465 16.5545 17.4766 16.4811 17.4296 16.3933L17.1997 15.9643L16.4605 17.8046C16.4189 17.9082 16.3468 17.9968 16.2538 18.0584C16.1607 18.1201 16.051 18.152 15.9394 18.1498C15.8278 18.1477 15.7194 18.1116 15.6288 18.0464C15.5382 17.9812 15.4695 17.89 15.432 17.7848L14.7247 15.8048L14.4915 16.3504C14.4491 16.4494 14.3785 16.5338 14.2885 16.593C14.1986 16.6523 14.0932 16.6838 13.9855 16.6837H13.2001C13.0542 16.6837 12.9143 16.6258 12.8112 16.5226C12.708 16.4195 12.6501 16.2796 12.6501 16.1337C12.6501 15.9878 12.708 15.8479 12.8112 15.7448C12.9143 15.6417 13.0542 15.5837 13.2001 15.5837H13.6236L14.266 14.0833C14.3095 13.9817 14.3826 13.8955 14.4758 13.8361C14.569 13.7766 14.678 13.7466 14.7885 13.75Z" fill="white"/>
</svg>
