<svg width="47" height="47" viewBox="0 0 47 47" fill="none" xmlns="http://www.w3.org/2000/svg">
<g clip-path="url(#clip0_284_508)">
<rect width="47" height="47" rx="23.5" fill="#7D7D7D"/>
<path fill-rule="evenodd" clip-rule="evenodd" d="M22.1156 16.2404C22.4828 15.8732 22.9808 15.667 23.5001 15.667C24.0194 15.667 24.5174 15.8732 24.8846 16.2404L35.9629 27.3187C36.3197 27.688 36.5171 28.1827 36.5126 28.6962C36.5081 29.2096 36.3022 29.7008 35.9391 30.0639C35.576 30.427 35.0848 30.6329 34.5713 30.6374C34.0579 30.6419 33.5632 30.4445 33.1939 30.0877L23.5001 20.394L13.8064 30.0877C13.437 30.4445 12.9423 30.6419 12.4289 30.6374C11.9154 30.6329 11.4242 30.427 11.0611 30.0639C10.698 29.7008 10.4921 29.2096 10.4876 28.6962C10.4832 28.1827 10.6805 27.688 11.0373 27.3187L22.1156 16.2404Z" fill="white"/>
</g>
<defs>
<clipPath id="clip0_284_508">
<rect width="47" height="47" rx="23.5" fill="white"/>
</clipPath>
</defs>
</svg>
