<svg width="45" height="45" viewBox="0 0 45 45" fill="none" xmlns="http://www.w3.org/2000/svg">
<circle cx="22.5" cy="22.5" r="22.5" fill="black" fill-opacity="0.38"/>
<path d="M10 35L35 10M17.6923 18.6538H14.8077C14.2977 18.6538 13.8085 18.8565 13.4479 19.2171C13.0872 19.5777 12.8846 20.0669 12.8846 20.5769V24.4231C12.8846 24.9331 13.0872 25.4222 13.4479 25.7829C13.8085 26.1435 14.2977 26.3462 14.8077 26.3462H17.6923M17.6923 18.6538V26.3462M17.6923 18.6538L25.2885 13.25C25.5671 13.0572 25.8916 12.9415 26.2293 12.9145C26.567 12.8875 26.9058 12.9501 27.2115 13.0962C27.5287 13.256 27.7954 13.5005 27.9821 13.8026C28.1688 14.1047 28.2682 14.4526 28.2692 14.8077V16.7308M17.6923 26.3462L18.25 26.75M21.8654 29.3462L25.2115 31.75C25.4901 31.9428 25.8147 32.0585 26.1524 32.0855C26.4901 32.1125 26.8289 32.0499 27.1346 31.9038C27.4661 31.7549 27.7487 31.5151 27.9495 31.2122C28.1503 30.9093 28.2612 30.5557 28.2692 30.1923V22.5" stroke="white" stroke-width="2" stroke-linecap="round" stroke-linejoin="round"/>
</svg>
