<svg width="82" height="82" viewBox="0 0 82 82" fill="none" xmlns="http://www.w3.org/2000/svg">
<path d="M2.66669 63.9998C2.66669 71.2295 2.66669 74.8405 4.91302 77.0868C7.15935 79.3332 10.7704 79.3332 18 79.3332C25.2297 79.3332 28.8407 79.3332 31.087 77.0868C33.3334 74.8405 33.3334 71.2295 33.3334 63.9998V17.9998C33.3334 10.7702 33.3334 7.15917 31.087 4.91284C28.8407 2.6665 25.2297 2.6665 18 2.6665C10.7704 2.6665 7.15935 2.6665 4.91302 4.91284C2.66669 7.15917 2.66669 10.7702 2.66669 17.9998V48.6665M79.3334 17.9998C79.3334 10.7702 79.3334 7.15917 77.087 4.91284C74.8407 2.6665 71.2297 2.6665 64 2.6665C56.7704 2.6665 53.1594 2.6665 50.913 4.91284C48.6667 7.15917 48.6667 10.7702 48.6667 17.9998V63.9998C48.6667 71.2295 48.6667 74.8405 50.913 77.0868C53.1594 79.3332 56.7704 79.3332 64 79.3332C71.2297 79.3332 74.8407 79.3332 77.087 77.0868C79.3334 74.8405 79.3334 71.2295 79.3334 63.9998V33.3332" stroke="white" stroke-width="3.5" stroke-linecap="round"/>
</svg>
