<svg width="50" height="50" viewBox="0 0 50 50" fill="none" xmlns="http://www.w3.org/2000/svg">
<path fill-rule="evenodd" clip-rule="evenodd" d="M9 35C8.46957 35 7.96086 34.7893 7.58579 34.4142C7.21071 34.0391 7 33.5304 7 33C7 32.4696 7.21071 31.9609 7.58579 31.5858C7.96086 31.2107 8.46957 31 9 31H13L19 25L13 19H9C8.48504 18.977 7.99881 18.7562 7.64255 18.3836C7.28629 18.0111 7.08747 17.5155 7.08747 17C7.08747 16.4845 7.28629 15.9889 7.64255 15.6164C7.99881 15.2438 8.48504 15.023 9 15H15L23 23L31 15H35V11L43 17.002L35 23V19H33L27 25L33 31H35V27L43 33L35 39V35H31L23 27L15 35H9Z" fill="white"/>
</svg>
