<svg width="283" height="283" viewBox="0 0 283 283" fill="none" xmlns="http://www.w3.org/2000/svg">
<circle cx="141.5" cy="141.5" r="141.5" fill="#E44949"/>
<path d="M141.5 163.644C142.763 163.644 143.822 163.23 144.678 162.401C145.533 161.572 145.96 160.547 145.957 159.327C145.957 158.103 145.529 157.077 144.673 156.248C143.817 155.419 142.76 155.006 141.5 155.009C140.237 155.009 139.178 155.424 138.322 156.253C137.467 157.082 137.04 158.106 137.043 159.327C137.043 160.55 137.471 161.576 138.327 162.405C139.182 163.234 140.24 163.647 141.5 163.644ZM137.043 146.374H145.957V120.47H137.043V146.374ZM124.787 180.914L101.39 158.247V125.867L124.787 103.2H158.212L181.61 125.867V158.247L158.212 180.914H124.787Z" fill="white"/>
</svg>
