<svg width="130" height="130" viewBox="0 0 130 130" fill="none" xmlns="http://www.w3.org/2000/svg">
<path d="M4.64286 125.357L125.357 4.64307M41.7857 46.4288H27.8571C25.3944 46.4288 23.0326 47.4071 21.2912 49.1485C19.5497 50.8899 18.5714 53.2518 18.5714 55.7145V74.2859C18.5714 76.7486 19.5497 79.1105 21.2912 80.8519C23.0326 82.5933 25.3944 83.5716 27.8571 83.5716H41.7857M41.7857 46.4288V83.5716M41.7857 46.4288L78.4643 20.3359C79.8095 19.4052 81.3767 18.8463 83.0072 18.7159C84.6378 18.5854 86.2739 18.888 87.75 19.5931C89.2813 20.3647 90.5691 21.5453 91.4706 23.004C92.372 24.4627 92.8519 26.1426 92.8571 27.8574V37.1431M41.7857 83.5716L44.4786 85.5216M61.9357 98.0574L78.0929 109.664C79.438 110.595 81.0052 111.154 82.6358 111.285C84.2664 111.415 85.9025 111.112 87.3786 110.407C88.9794 109.688 90.3436 108.53 91.3132 107.068C92.2829 105.605 92.8182 103.898 92.8571 102.143V65.0002" stroke="white" stroke-width="5" stroke-linecap="round" stroke-linejoin="round"/>
</svg>
