<svg width="45" height="45" viewBox="0 0 45 45" fill="none" xmlns="http://www.w3.org/2000/svg">
<circle cx="22.5" cy="22.5" r="22.5" fill="black" fill-opacity="0.38"/>
<path d="M14.8059 18.2896H11.9223C11.4125 18.2896 10.9236 18.5114 10.563 18.9062C10.2025 19.301 10 19.8365 10 20.3948V24.6052C10 25.1635 10.2025 25.699 10.563 26.0938C10.9236 26.4886 11.4125 26.7104 11.9223 26.7104H14.8059M14.8059 18.2896V26.7104M14.8059 18.2896L22.4952 12.374C22.7737 12.163 23.0982 12.0363 23.4357 12.0067C23.7733 11.9771 24.112 12.0457 24.4176 12.2056C24.7167 12.3946 24.9638 12.6683 25.1329 12.998C25.3021 13.3277 25.387 13.7012 25.3787 14.0792V30.9208C25.3707 31.3185 25.2599 31.7057 25.0591 32.0373C24.8584 32.3689 24.576 32.6314 24.2446 32.7944C23.939 32.9543 23.6003 33.0229 23.2627 32.9933C22.9251 32.9637 22.6007 32.837 22.3222 32.626L14.8059 26.7104M33.0681 16.1844C34.4047 17.954 35.0902 20.2061 34.9905 22.5C34.9616 25.0999 34.2979 27.644 33.0681 29.8682M29.2234 19.3422C29.8917 20.227 30.2345 21.353 30.1846 22.5C30.2345 23.647 29.8917 24.773 29.2234 25.6578" stroke="white" stroke-width="2" stroke-linecap="round" stroke-linejoin="round"/>
</svg>
