<svg width="14" height="11" viewBox="0 0 14 11" fill="none" xmlns="http://www.w3.org/2000/svg">
<g clip-path="url(#clip0_33_7)">
<path d="M2.1 2.75C2.1 2.02065 2.395 1.32118 2.9201 0.805456C3.4452 0.289731 4.15739 0 4.9 0C5.64261 0 6.3548 0.289731 6.8799 0.805456C7.405 1.32118 7.7 2.02065 7.7 2.75C7.7 3.47935 7.405 4.17882 6.8799 4.69454C6.3548 5.21027 5.64261 5.5 4.9 5.5C4.15739 5.5 3.4452 5.21027 2.9201 4.69454C2.395 4.17882 2.1 3.47935 2.1 2.75ZM0 10.3619C0 8.2457 1.74563 6.53125 3.90031 6.53125H5.89969C8.05437 6.53125 9.8 8.2457 9.8 10.3619C9.8 10.7143 9.50906 11 9.15031 11H0.649688C0.290938 11 0 10.7143 0 10.3619ZM13.3284 11H10.3119C10.43 10.798 10.5 10.5639 10.5 10.3125V10.1406C10.5 8.83652 9.90719 7.66563 8.97313 6.8793C9.02563 6.87715 9.07594 6.875 9.12844 6.875H10.4716C12.4206 6.875 14 8.42617 14 10.3404C14 10.7057 13.6981 11 13.3284 11ZM9.45 5.5C8.77187 5.5 8.15938 5.2293 7.71531 4.79316C8.14625 4.22168 8.4 3.51484 8.4 2.75C8.4 2.17422 8.25562 1.63066 7.99969 1.15371C8.40656 0.861523 8.9075 0.6875 9.45 0.6875C10.8041 0.6875 11.9 1.76387 11.9 3.09375C11.9 4.42363 10.8041 5.5 9.45 5.5Z" fill="#424874"/>
</g>
<defs>
<clipPath id="clip0_33_7">
<rect width="14" height="11" fill="white"/>
</clipPath>
</defs>
</svg>
