<svg width="18" height="17" viewBox="0 0 18 17" fill="none" xmlns="http://www.w3.org/2000/svg">
<g clip-path="url(#clip0_347_536)">
<path d="M11.0998 10.9296L12.1465 9.88291H5.09744C4.89123 9.88282 4.68703 9.92337 4.49651 10.0022C4.30598 10.0811 4.13287 10.1967 3.98706 10.3426C3.84125 10.4884 3.72561 10.6615 3.64674 10.852C3.56788 11.0425 3.52733 11.2467 3.52742 11.4529V11.8556C3.52742 12.478 3.75071 13.0809 4.15543 13.5547C5.12884 14.6948 6.5572 15.3208 8.40982 15.4436C8.40703 15.3159 8.42098 15.1854 8.45448 15.0521L8.61497 14.4074C6.95913 14.3236 5.74847 13.8087 4.9509 12.875C4.70793 12.5909 4.57432 12.2294 4.5741 11.8556V11.4522C4.57428 11.3136 4.6295 11.1806 4.72763 11.0826C4.82575 10.9846 4.95876 10.9296 5.09744 10.9296H11.0998ZM9.10761 1.51299C9.56578 1.51299 10.0195 1.60323 10.4428 1.77856C10.8661 1.9539 11.2507 2.21089 11.5746 2.53487C11.8986 2.85884 12.1556 3.24346 12.331 3.66676C12.5063 4.09005 12.5965 4.54374 12.5965 5.00191C12.5965 5.46008 12.5063 5.91377 12.331 6.33706C12.1556 6.76036 11.8986 7.14497 11.5746 7.46895C11.2507 7.79293 10.8661 8.04992 10.4428 8.22525C10.0195 8.40059 9.56578 8.49083 9.10761 8.49083C8.18228 8.49083 7.29486 8.12325 6.64056 7.46895C5.98626 6.81465 5.61868 5.92723 5.61868 5.00191C5.61868 4.07659 5.98626 3.18917 6.64056 2.53487C7.29486 1.88057 8.18228 1.51299 9.10761 1.51299ZM9.10761 2.55966C8.78688 2.55966 8.4693 2.62283 8.173 2.74557C7.87669 2.8683 7.60746 3.0482 7.38068 3.27498C7.15389 3.50176 6.974 3.77099 6.85126 4.0673C6.72853 4.36361 6.66536 4.68119 6.66536 5.00191C6.66536 5.32263 6.72853 5.64021 6.85126 5.93652C6.974 6.23282 7.15389 6.50206 7.38068 6.72884C7.60746 6.95562 7.87669 7.13552 8.173 7.25825C8.4693 7.38099 8.78688 7.44416 9.10761 7.44416C9.75533 7.44416 10.3765 7.18685 10.8345 6.72884C11.2925 6.27083 11.5499 5.64963 11.5499 5.00191C11.5499 4.35419 11.2925 3.73299 10.8345 3.27498C10.3765 2.81697 9.75533 2.55966 9.10761 2.55966ZM14.0619 8.95486L9.94285 13.0732C9.70287 13.3133 9.5326 13.614 9.45022 13.9433L9.13063 15.221C9.09885 15.3481 9.10054 15.4813 9.13554 15.6075C9.17054 15.7338 9.23765 15.8489 9.33034 15.9415C9.42303 16.0341 9.53813 16.1011 9.66443 16.136C9.79073 16.1709 9.92392 16.1725 10.051 16.1406L11.328 15.8218C11.6576 15.7393 11.9586 15.5688 12.1988 15.3284L16.3171 11.2101C16.6047 10.9087 16.7629 10.5068 16.758 10.0902C16.7531 9.6737 16.5855 9.2756 16.2909 8.98105C15.9964 8.68649 15.5983 8.51885 15.1817 8.51395C14.7652 8.50906 14.3633 8.6673 14.0619 8.95486Z" fill="white"/>
</g>
<defs>
<clipPath id="clip0_347_536">
<rect width="16.7468" height="16.7468" fill="white" transform="translate(0.734192 0.11393)"/>
</clipPath>
</defs>
</svg>
