<svg width="45" height="45" viewBox="0 0 45 45" fill="none" xmlns="http://www.w3.org/2000/svg">
<path d="M5.625 7.48688C5.625 6.45938 6.45938 5.625 7.48688 5.625H37.5131C38.5406 5.625 39.375 6.45938 39.375 7.48688V37.5131C39.3745 38.0068 39.1782 38.4801 38.8291 38.8291C38.4801 39.1782 38.0068 39.3745 37.5131 39.375H7.48688C6.99308 39.375 6.5195 39.1788 6.17033 38.8297C5.82116 38.4805 5.625 38.0069 5.625 37.5131V7.48688ZM19.9162 15.7781C19.8034 15.7028 19.6723 15.6596 19.5368 15.6529C19.4013 15.6463 19.2665 15.6765 19.1468 15.7404C19.0272 15.8042 18.9271 15.8994 18.8572 16.0157C18.7873 16.1319 18.7503 16.265 18.75 16.4006V28.5994C18.7503 28.735 18.7873 28.8681 18.8572 28.9843C18.9271 29.1006 19.0272 29.1958 19.1468 29.2596C19.2665 29.3235 19.4013 29.3537 19.5368 29.3471C19.6723 29.3404 19.8034 29.2972 19.9162 29.2219L29.0644 23.1244C29.1669 23.0556 29.2508 22.9627 29.3089 22.8538C29.367 22.7449 29.3974 22.6234 29.3974 22.5C29.3974 22.3766 29.367 22.2551 29.3089 22.1462C29.2508 22.0373 29.1669 21.9444 29.0644 21.8756L19.9162 15.7781Z" fill="white"/>
</svg>
