<svg width="32" height="32" viewBox="0 0 32 32" fill="none" xmlns="http://www.w3.org/2000/svg">
<path d="M16 8.286C8.454 8.286 2.5 16 2.5 16C2.5 16 8.454 23.715 16 23.715C21.77 23.715 29.5 16 29.5 16C29.5 16 21.77 8.286 16 8.286ZM16 20.806C13.35 20.806 11.193 18.65 11.193 16C11.193 13.35 13.35 11.193 16 11.193C18.65 11.193 20.807 13.35 20.807 16C20.807 18.65 18.65 20.806 16 20.806ZM16 13.194C15.6271 13.187 15.2566 13.2543 14.91 13.3921C14.5635 13.53 14.2479 13.7355 13.9817 13.9967C13.7155 14.2579 13.5041 14.5696 13.3597 14.9135C13.2154 15.2573 13.141 15.6265 13.141 15.9995C13.141 16.3724 13.2154 16.7416 13.3597 17.0855C13.5041 17.4294 13.7155 17.7411 13.9817 18.0023C14.2479 18.2635 14.5635 18.469 14.91 18.6068C15.2566 18.7447 15.6271 18.812 16 18.805C16.7349 18.7911 17.435 18.4894 17.9498 17.9648C18.4646 17.4402 18.753 16.7345 18.753 15.9995C18.753 15.2645 18.4646 14.5588 17.9498 14.0342C17.435 13.5095 16.7349 13.2079 16 13.194Z" fill="#5C64A2"/>
</svg>
