<svg width="19" height="19" viewBox="0 0 19 19" fill="none" xmlns="http://www.w3.org/2000/svg">
<path d="M9.5 4.91982C5.01956 4.91982 1.48438 9.5 1.48438 9.5C1.48438 9.5 5.01956 14.0808 9.5 14.0808C12.9259 14.0808 17.5156 9.5 17.5156 9.5C17.5156 9.5 12.9259 4.91982 9.5 4.91982ZM9.5 12.3536C7.92656 12.3536 6.64584 11.0734 6.64584 9.5C6.64584 7.92656 7.92656 6.64585 9.5 6.64585C11.0734 6.64585 12.3542 7.92656 12.3542 9.5C12.3542 11.0734 11.0734 12.3536 9.5 12.3536ZM9.5 7.83394C9.2786 7.82976 9.05859 7.86976 8.85283 7.95159C8.64707 8.03343 8.45969 8.15546 8.30164 8.31055C8.14359 8.46565 8.01804 8.65069 7.93233 8.85487C7.84663 9.05905 7.80249 9.27827 7.80249 9.49971C7.80249 9.72114 7.84663 9.94036 7.93233 10.1445C8.01804 10.3487 8.14359 10.5338 8.30164 10.6889C8.45969 10.844 8.64707 10.966 8.85283 11.0478C9.05859 11.1297 9.2786 11.1697 9.5 11.1655C9.93634 11.1572 10.352 10.9781 10.6577 10.6666C10.9634 10.3551 11.1346 9.93613 11.1346 9.49971C11.1346 9.06329 10.9634 8.64429 10.6577 8.33279C10.352 8.0213 9.93634 7.84218 9.5 7.83394Z" fill="white"/>
</svg>
